<svg width="82" height="96" viewBox="0 0 82 96" fill="none" xmlns="http://www.w3.org/2000/svg">
<path id="Union" fill-rule="evenodd" clip-rule="evenodd" d="M55.7389 59.6885L74.4637 66.0173H74.3845C78.8579 67.5204 81.8665 71.7132 81.8665 76.4598V94.4969C81.8665 95.3276 81.1935 96 80.3622 96C79.5309 96 78.8579 95.3276 78.8579 94.4969V76.4598C78.8579 73.0185 76.641 69.9728 73.3948 68.8653L56.9661 63.288C57.0452 63.4462 57.0848 63.5649 57.1244 63.7231C57.2828 64.2373 57.164 64.7911 56.7681 65.1866L49.6424 72.4648C49.0882 73.0185 48.1777 73.0581 47.5839 72.5439L46.6338 71.7132L44.6148 75.827L48.8903 93.7058C49.0882 94.5365 48.5736 95.3276 47.7818 95.5253C47.663 95.5649 47.5443 95.5649 47.4255 95.5649C46.7525 95.5649 46.1191 95.0902 45.9608 94.4178L41.5666 76.0247C41.4874 75.6687 41.527 75.3127 41.6854 74.9963L44.2981 69.6959L40.9332 66.7688L37.5683 69.6959L40.181 74.9963C40.3394 75.3127 40.379 75.6687 40.2998 76.0247L35.9056 94.4178C35.7473 95.0902 35.1139 95.5649 34.4409 95.5649C34.3815 95.5649 34.3221 95.555 34.2627 95.5451C34.2034 95.5352 34.144 95.5253 34.0846 95.5253C33.2928 95.3276 32.7782 94.4969 32.9761 93.7058L37.2516 75.827L35.2326 71.7132L34.2825 72.5439C34.0054 72.7812 33.6491 72.8999 33.2928 72.8999C32.897 72.8999 32.5011 72.7812 32.224 72.4648L25.0983 65.1866C24.742 64.7911 24.5836 64.2373 24.742 63.7231C24.7816 63.5649 24.9003 63.288 24.9003 63.288L8.47157 68.8653C5.18582 69.9728 3.00852 73.0185 3.00852 76.4598V94.4969C3.00852 95.3276 2.33553 96 1.5042 96C0.672863 96 -0.00012207 95.3276 -0.00012207 94.4969V76.4598C-0.00012207 71.7132 3.00852 67.5204 7.48189 66.0173L26.2067 59.6885C27.5131 56.7219 28.9778 54.5464 29.5716 53.6761V53.0828C25.217 50.2349 23.6335 45.3696 23.0793 41.8492C20.7832 41.2559 17.5371 39.199 17.1412 34.2942C16.9433 31.8418 17.4975 30.1014 18.8435 29.152C19.3977 28.7565 19.9915 28.5983 20.5853 28.5192C19.9519 26.1459 19.8727 24.1286 19.9519 20.9642C19.9519 9.41409 29.3737 0 40.9728 0C52.5719 0 61.9937 9.41409 61.9937 21.0037C61.9541 21.6366 61.9541 22.1508 61.9541 22.665C61.9504 22.7656 61.9468 22.8651 61.9433 22.9637C61.8702 24.9984 61.8115 26.6328 61.3207 28.5192C61.9145 28.5587 62.5479 28.7565 63.1021 29.152C64.4481 30.0618 65.0023 31.8022 64.8044 34.2942C64.4085 39.199 61.1623 41.2559 58.8663 41.8492C58.312 45.3696 56.7286 50.2744 52.3739 53.0828V53.6761C52.9678 54.5464 54.4325 56.7219 55.7389 59.6885ZM24.3065 36.3115C25.1378 36.3115 25.7712 37.0235 25.7712 37.8541L25.7317 37.8937C25.7317 37.8958 25.7316 37.9008 25.7314 37.9086C25.7239 38.3439 25.5655 47.5274 31.7489 50.9468C32.224 51.1842 32.5407 51.6984 32.5407 52.2522V54.1508C32.5407 56.0099 33.5304 57.7108 35.1534 58.6601L40.9332 61.9827L46.713 58.6601C48.336 57.7503 49.3257 56.0099 49.3257 54.1508V52.2522C49.3257 51.6984 49.6424 51.2237 50.1175 50.9468C56.3482 47.4838 56.1433 38.2794 56.135 37.905C56.1348 37.8988 56.1347 37.895 56.1347 37.8937C56.0952 37.063 56.7286 36.3115 57.5599 36.3115C58.4308 36.2719 59.1434 36.9048 59.1434 37.7355V38.487C60.2914 37.8937 61.5582 36.6675 61.7957 34.0173C61.9145 32.5142 61.6374 31.7627 61.3603 31.5649C61.004 31.288 60.0539 31.5253 59.7372 31.6836C59.183 31.9604 58.51 31.8418 58.0745 31.4067C57.5995 30.9716 57.4807 30.2991 57.7182 29.7454C58.8174 27.1566 58.8655 25.4235 58.9435 22.6177L58.9454 22.5464C58.985 22.0321 58.985 21.5179 58.985 20.9246C58.985 11.0358 50.9092 2.96663 40.9728 2.96663C31.0364 2.96663 22.921 11.0358 22.921 20.9642C22.8022 24.9197 22.8814 26.6601 24.1877 29.7454C24.4253 30.2991 24.2669 30.9716 23.8315 31.4067C23.396 31.8418 22.723 31.9209 22.1688 31.6836C21.8125 31.5253 20.9416 31.288 20.5457 31.5649C20.2686 31.7627 19.9915 32.5142 20.1103 34.0173C20.3478 36.6675 21.6542 37.8937 22.7626 38.487V37.7355C22.7626 36.9444 23.4752 36.3115 24.3065 36.3115ZM30.4821 57.8294C29.6112 59.3721 28.6215 61.4289 27.8694 63.7231L33.372 69.3795L39.0726 64.3956L33.6491 61.2707C32.2636 60.44 31.1947 59.2534 30.4821 57.8294ZM42.8334 64.3956L48.534 69.3795L54.0366 63.7231C53.324 61.4289 52.2948 59.3721 51.4238 57.8294C50.7113 59.2534 49.6424 60.4796 48.2569 61.2707L42.8334 64.3956ZM54.7091 30.6151C54.7091 31.4458 54.0362 32.1182 53.2048 32.1182C35.3113 32.1182 29.6108 18.1553 29.5712 17.9971C29.2941 17.2455 29.6504 16.3753 30.4421 16.0589C31.1943 15.782 32.0652 16.138 32.3819 16.9291C32.5798 17.4433 37.4491 29.112 53.2048 29.112C54.0362 29.112 54.7091 29.7844 54.7091 30.6151Z" fill="url(#paint0_linear_4855_592)"/>
<defs>
<linearGradient id="paint0_linear_4855_592" x1="3.9313" y1="37.5147" x2="81.7959" y2="53.6524" gradientUnits="userSpaceOnUse">
<stop stop-color="#7FBD39"/>
<stop offset="0.44" stop-color="#8D49CB"/>
<stop offset="0.73" stop-color="#BB1B78"/>
<stop offset="1" stop-color="#D6782B"/>
</linearGradient>
</defs>
</svg>
