<svg width="111" height="70" viewBox="0 0 111 70" fill="none" xmlns="http://www.w3.org/2000/svg">
<path id="Vector" d="M109.774 33.7273L90.4619 0.782552C89.9929 0.0261669 89.0124 -0.225961 88.245 0.194252L79.3351 5.23682C78.9514 5.44692 78.6956 5.78309 78.5677 6.20331C78.4398 6.62352 78.5251 7.04373 78.7383 7.42193L80.6567 10.6576C78.6104 11.3299 76.6919 10.8677 73.7504 10.1113C72.5141 9.77512 71.1073 9.39693 69.5725 9.10278C51.8379 5.02671 44.9317 10.7836 44.548 11.1198C43.5675 12.0863 42.7148 13.0108 41.9048 13.9352C37.4286 14.1033 32.2275 11.2459 29.9254 9.81715L31.1618 7.67406C31.5881 6.91767 31.3323 5.95118 30.5649 5.48894L21.7402 0.446381C21.3566 0.236274 20.9303 0.194252 20.5039 0.278295C20.0776 0.404359 19.7366 0.656487 19.5234 1.03468L0.211452 33.9794C-0.00170447 34.3576 -0.0443357 34.7778 0.0409268 35.1981C0.168821 35.6183 0.424608 35.9544 0.80829 36.1645L9.71823 41.2071C9.97401 41.3332 10.2298 41.4172 10.5282 41.4172C11.0824 41.4172 11.6366 41.1231 11.9351 40.6188L14.7061 35.9124L19.6939 42.0475L19.4382 42.3417C17.3492 44.905 17.7329 48.6449 20.3334 50.746C21.3992 51.6284 22.7634 52.0906 24.1276 52.0906C24.3408 52.0906 24.5539 52.0906 24.7671 52.0906C24.7671 52.0906 24.8097 52.0906 24.8523 52.0906C24.8523 53.8135 25.5771 55.4523 27.0265 56.6289C28.1349 57.5114 29.4991 57.9736 30.8207 57.9736C30.9912 57.9736 31.2044 57.9316 31.3749 57.9316C31.3749 58.1417 31.2896 58.3518 31.3323 58.5619C31.5028 60.1587 32.2702 61.5875 33.5491 62.554C34.6575 63.4364 36.0217 63.8986 37.3433 63.8986C37.6843 63.8986 38.068 63.8566 38.4091 63.7726C38.4091 63.7726 38.4091 63.8566 38.4091 63.8986C38.5796 65.4955 39.347 66.9242 40.6259 67.8907C41.7343 68.7731 43.0985 69.2354 44.4201 69.2354C46.168 69.2354 47.9158 68.479 49.1095 67.0502L50.3032 65.5795C52.9463 66.8822 56.5274 68.1428 60.0658 68.1428C63.391 68.1428 66.5457 66.9662 68.8478 63.9407C69.402 64.0247 69.9562 64.1087 70.4678 64.1087C71.3204 64.1087 72.0452 63.9407 72.642 63.6045C75.9246 61.7135 76.6493 60.0327 76.7772 57.8896C77.5872 57.8896 78.3546 57.7215 79.0367 57.4274C81.0403 56.5029 82.1914 54.5279 82.5751 51.6284C83.2998 51.7965 83.9819 51.9226 84.6214 51.9226C85.9003 51.9226 87.0087 51.5864 87.8614 50.788C88.3303 50.3678 90.7603 48.1406 90.5471 44.905C90.4619 44.0646 90.2061 43.2241 89.7798 42.3837C91.2718 41.2491 93.8297 39.3161 96.3023 37.4252L98.1355 40.5768C98.4339 41.081 98.9881 41.3752 99.5423 41.3752C99.7981 41.3752 100.097 41.2911 100.352 41.1651L109.262 36.1225C109.646 35.9124 109.902 35.5762 110.03 35.156C110.158 34.7358 110.072 34.3156 109.859 33.9374L109.774 33.7273ZM9.93138 37.6353L3.83511 34.1895L21.5271 4.0182L27.6234 7.46395L9.93138 37.6353ZM24.426 48.855C23.7013 48.939 22.9339 48.7289 22.3797 48.2667C21.186 47.3002 20.9729 45.5773 21.9534 44.3587L23.4455 42.5518C23.9997 41.8794 24.8097 41.5433 25.6197 41.5433C26.2592 41.5433 26.856 41.7534 27.3676 42.1736C28.5612 43.1401 28.7744 44.863 27.7939 46.0816L26.3018 47.8885C25.8328 48.4768 25.1507 48.813 24.426 48.897V48.855ZM29.0302 54.0656C27.8365 53.0992 27.6234 51.3763 28.6039 50.1577L35.0412 42.3417C36.0217 41.1651 37.7696 40.955 38.9633 41.9215C40.157 42.888 40.3701 44.6108 39.3896 45.8295L37.8975 47.6784C37.8975 47.6784 37.8975 47.6784 37.8549 47.6784L32.9523 53.6875C31.9718 54.822 30.2239 54.9901 29.0302 54.0656ZM35.5528 59.9486C34.9559 59.4864 34.6149 58.8141 34.5296 58.0997C34.4444 57.3853 34.6575 56.6289 35.1265 56.0827L35.4249 55.7045C35.4249 55.7045 35.4675 55.7045 35.5101 55.6625L40.4554 49.6534C40.9243 49.1071 41.5638 48.771 42.2885 48.6869C42.3738 48.6869 42.5017 48.6869 42.5869 48.6869C43.2264 48.6869 43.8232 48.897 44.3348 49.3172C45.5285 50.2837 45.7417 52.0066 44.7611 53.1832L39.5175 59.5704C38.537 60.747 36.7891 60.9571 35.5954 59.9907L35.5528 59.9486ZM42.5869 65.2853C41.9901 64.8231 41.6491 64.1508 41.5638 63.4364C41.4785 62.722 41.6917 61.9657 42.1606 61.4194L45.7843 57.0071C46.3385 56.3348 47.1485 55.9986 47.9585 55.9986C48.5979 55.9986 49.1948 56.2087 49.7064 56.6289C50.9 57.5954 51.1132 59.3183 50.1327 60.5369L46.509 64.9492C45.5285 66.1258 43.7806 66.3359 42.5443 65.3694L42.5869 65.2853ZM85.6872 48.1827C85.6872 48.1827 85.6019 48.2667 85.5593 48.3087C83.7261 50.1156 73.8783 44.6108 66.162 38.5177C65.4799 37.9715 64.4568 38.0975 63.9026 38.7699C63.3484 39.4422 63.4763 40.4507 64.1584 40.997C66.8868 43.1401 73.5799 48.1827 79.4203 50.4938C79.2925 52.1327 78.9088 53.8135 77.6725 54.3598C74.5178 55.7885 66.5457 50.788 61.8989 46.7959C61.2168 46.2076 60.1937 46.2917 59.5968 46.964C59 47.6364 59.0852 48.6449 59.7673 49.2332C60.7479 50.0736 67.5262 55.7465 73.5372 57.3853C73.4946 58.8141 73.1962 59.5284 71.022 60.7891C69.6578 61.5454 63.0926 58.8141 56.911 54.9061C56.1437 54.4438 55.1632 54.6539 54.6516 55.4103C54.1826 56.1667 54.3958 57.1332 55.1632 57.6375C57.4653 59.0662 61.6431 61.5454 65.5226 62.9742C61.7284 66.588 55.419 64.4029 52.4348 63.0162L52.7758 62.596C54.8647 60.0327 54.4811 56.2928 51.8806 54.1917C50.8574 53.3933 49.6637 53.0571 48.4701 52.9731C49.0243 50.788 48.3422 48.3928 46.4664 46.88C45.5285 46.1236 44.3775 45.7874 43.1411 45.7034C43.738 43.5183 43.0559 41.039 41.1375 39.5263C38.537 37.4672 34.7428 37.8454 32.6112 40.4087L31.2044 42.1316C30.8207 41.2491 30.3091 40.4087 29.4991 39.7364C27.2823 37.9715 24.1702 38.0975 21.996 39.7784L16.4966 32.9709L28.3907 12.6326C30.6075 14.0193 35.0412 16.4145 39.5601 17.0448C37.258 20.2384 35.9791 23.0119 35.2544 25.1129C34.7428 26.5837 35.0412 28.2225 36.0644 29.3991C37.0875 30.6177 38.6222 31.164 40.1996 30.9119C46.7648 29.8613 50.6869 25.239 51.8806 23.6002L55.2911 22.7177C58.4458 24.7768 72.983 34.2736 82.2766 39.5263C85.4314 41.3332 87.1792 43.1821 87.3071 44.947C87.4777 46.7959 85.7724 48.1827 85.7724 48.1827H85.6872ZM87.7335 39.6523C86.7103 38.6438 85.474 37.6353 83.8114 36.7108C73.4946 30.8278 56.57 19.7342 56.3995 19.6081C56.0158 19.356 55.5468 19.272 55.0779 19.398L50.3458 20.6166C49.9622 20.7007 49.6211 20.9528 49.3653 21.331C49.3653 21.373 45.9122 26.7097 39.5175 27.7182C38.9207 27.8023 38.537 27.4661 38.4091 27.298C38.2812 27.1299 37.9828 26.7097 38.1959 26.1214C39.2617 23.1799 41.6064 18.5576 46.7648 13.473C46.8074 13.431 52.9463 8.59853 68.8904 12.2544C70.3825 12.5485 71.7467 12.9267 72.9404 13.2209C76.3083 14.1453 79.0793 14.8597 82.3619 13.557L94.5971 34.4417C92.2097 36.2906 89.2682 38.5177 87.7335 39.6523ZM100.054 37.4252L84.4082 10.6996L82.4045 7.29586L88.5008 3.85011L106.193 34.0215L100.097 37.4672L100.054 37.4252Z" fill="url(#paint0_linear_4855_595)"/>
<defs>
<linearGradient id="paint0_linear_4855_595" x1="5.28653" y1="27.0507" x2="100.306" y2="63.766" gradientUnits="userSpaceOnUse">
<stop stop-color="#7FBD39"/>
<stop offset="0.44" stop-color="#8D49CB"/>
<stop offset="0.73" stop-color="#BB1B78"/>
<stop offset="1" stop-color="#D6782B"/>
</linearGradient>
</defs>
</svg>
