<svg width="100" height="100" viewBox="0 0 100 100" fill="none" xmlns="http://www.w3.org/2000/svg">
<path fill-rule="evenodd" clip-rule="evenodd" d="M10.1895 36.4885C10.1895 41.5084 13.2642 45.8087 17.6336 47.6091V48.6604L15.5593 49.2461C15.476 49.262 15.3945 49.2851 15.3157 49.315L10.458 50.6868C7.86257 51.412 5.5725 52.557 3.62594 54.0837C1.22137 55.954 0 57.9005 0 59.8852V69.6562C0 74.4272 3.85495 78.2821 8.62593 78.2821H25.7104C26.6364 82.5472 30.4296 85.7631 34.998 85.7631H64.9216C69.4609 85.7631 73.2812 82.5703 74.2099 78.2822H91.2975L91.3738 78.3204C96.1448 78.3204 99.9998 74.4654 99.9998 69.6945V59.9235C99.9998 57.9769 98.7784 55.9922 96.3738 54.122C94.4273 52.5953 92.1372 51.4502 89.5418 50.725L84.6023 49.3373C84.4892 49.289 84.3689 49.2549 84.2438 49.2366L82.5201 48.7523V47.7284C87.0486 46.0045 90.2653 41.6229 90.2653 36.4885V27.0229C90.2653 20.3817 84.8836 15 78.2424 15C71.7424 15 66.4489 20.1553 66.2268 26.601C66.1728 26.8247 66.1708 27.0565 66.2195 27.2772V36.4885C66.2195 41.5079 69.2937 45.8078 73.6623 47.6086V48.6226L66.4882 50.6486C63.8928 51.3738 61.6027 52.5188 59.6561 54.0455C59.6044 54.0899 59.5527 54.1328 59.5012 54.1748L54.9222 52.8943V51.4502C59.9708 49.561 63.5862 44.6913 63.5862 38.9694V28.3588C63.5862 27.5784 63.5183 26.8131 63.388 26.0686C63.389 25.8696 63.351 25.669 63.2713 25.4809C61.9472 19.5246 56.6065 15.0382 50.2657 15.0382C42.9374 15.0382 36.9451 20.9924 36.9451 28.3588V38.9694C36.9451 44.5388 40.3842 49.3367 45.2686 51.3189V52.817L40.4096 54.1767L40.388 54.1592C40.3729 54.1469 40.3578 54.1345 40.3428 54.122C38.3962 52.5953 36.1061 51.4502 33.5107 50.725L28.582 49.3403C28.4646 49.2895 28.3394 49.2539 28.209 49.2355L26.5277 48.7632V47.714C31.0364 45.9802 34.2352 41.6087 34.2352 36.4885V27.0229C34.2352 20.3817 28.8535 15 22.2123 15C15.7095 15 10.4142 20.1598 10.1964 26.6095C10.1451 26.8278 10.1431 27.0537 10.1895 27.2692V36.4885ZM13.0902 27.5033V36.4885C13.0902 41.5267 17.1742 45.6106 22.2123 45.6106C27.2505 45.6106 31.3344 41.5267 31.3344 36.4885V27.1931C29.3936 28.092 27.6548 28.5496 26.0686 28.5496L26.1067 28.5878C24.9617 28.5878 23.8548 28.3588 22.8625 27.9008C21.6029 27.3283 20.8014 26.4886 20.1525 25.8016C19.5037 25.1145 19.122 24.7329 18.4732 24.5802C17.1091 24.2571 15.2725 25.2844 13.0902 27.5033ZM30.8837 24.1827C29.6898 20.5353 26.2588 17.9008 22.2123 17.9008C18.6695 17.9008 15.5986 19.9202 14.0877 22.8708C15.8685 21.7439 17.5379 21.3682 19.122 21.7176C20.5643 22.0504 21.4332 22.9207 22.1802 23.6689C22.2042 23.6929 22.228 23.7168 22.2518 23.7405C22.3292 23.8179 22.4045 23.8946 22.4787 23.9702C22.9537 24.454 23.3855 24.8938 24.0457 25.1909C25.2814 25.7558 27.1378 26.1247 30.8837 24.1827ZM11.2595 53.473L14.2797 52.6201C14.4135 57.9475 17.7751 62.2255 21.9091 62.2517L21.8709 62.2518H21.9472L21.9091 62.2517C26.043 62.2255 29.4045 57.9477 29.5385 52.6205L32.7092 53.5113C34.1876 53.9192 35.5469 54.4802 36.7757 55.1945C33.9916 56.0011 31.5312 57.2684 29.4637 58.8929C26.8301 60.954 25.4942 63.0914 25.4942 65.2669V75.3432H8.70227C5.53434 75.3432 2.97709 72.786 2.97709 69.618V59.8471C2.97709 58.8547 3.85495 57.5952 5.458 56.3356C7.06105 55.0761 9.04578 54.0837 11.2595 53.473ZM26.6801 52.29C26.6801 52.1285 26.6801 51.971 26.6761 51.8163L24.694 51.2594C24.514 51.2054 24.3509 51.1196 24.2099 51.0099C23.8559 50.7455 23.627 50.3233 23.627 49.8471V48.4291C23.163 48.4834 22.6909 48.5114 22.2123 48.5114C21.6429 48.5114 21.0827 48.4718 20.5343 48.3953V49.512C20.6036 49.9065 20.4976 50.2997 20.2686 50.6082C20.0416 50.9289 19.6875 51.1533 19.2794 51.2082L17.1515 51.8091C17.1426 51.9718 17.1381 52.1331 17.1381 52.29C17.1381 56.1068 19.3137 59.3129 21.9091 59.3129C24.5045 59.3129 26.6801 56.1068 26.6801 52.29ZM34.998 82.8241C31.6024 82.8241 28.7759 80.2468 28.4304 76.9101C28.4335 76.8717 28.435 76.8328 28.435 76.7936C28.435 76.6837 28.4228 76.5767 28.3997 76.4738C28.3966 76.39 28.395 76.3057 28.395 76.2211V65.2288C28.395 63.7402 29.9599 62.1753 31.2576 61.1448C33.1278 59.6944 35.3415 58.6257 37.8606 57.9005L41.5259 56.8749C41.575 62.8886 45.3346 67.7479 49.9605 67.7479C54.5862 67.7479 58.3456 62.8892 58.3951 56.8759L59.2062 57.1027C59.3689 57.1839 59.5452 57.2305 59.7181 57.2459L62.059 57.9005C64.5781 58.5876 66.7918 59.6944 68.662 61.1448C69.9598 62.1753 71.5246 63.702 71.5246 65.2288V76.2211C71.5246 79.847 68.5857 82.8241 64.9216 82.8241H34.998ZM69.1203 36.4885V27.5015C71.3018 25.2839 73.1378 24.2572 74.5015 24.5802C75.1504 24.7329 75.532 25.1145 76.1809 25.8016C76.8297 26.4886 77.6313 27.3283 78.8908 27.9008C79.8776 28.3562 80.9776 28.5852 82.1158 28.5878L82.0969 28.5878H82.1351L82.1158 28.5878C83.6975 28.5842 85.4307 28.1263 87.3645 27.2305V36.4885C87.3645 41.5267 83.2806 45.6106 78.2424 45.6106C73.2043 45.6106 69.1203 41.5267 69.1203 36.4885ZM78.2424 17.9008C82.3007 17.9008 85.7399 20.5506 86.9241 24.2146C83.1701 26.1637 81.3111 25.7946 80.074 25.229C79.4138 24.932 78.9821 24.4922 78.5071 24.0084L78.5066 24.0079C78.4325 23.9324 78.3573 23.8559 78.2801 23.7787C77.5168 22.9771 76.6389 22.0611 75.1504 21.7176C73.567 21.3683 71.8984 21.7435 70.1186 22.8691C71.6298 19.9194 74.7003 17.9008 78.2424 17.9008ZM82.7033 51.8152L80.725 51.2594L80.6989 51.2513L80.6719 51.2424C80.064 51.0696 79.6194 50.5107 79.6194 49.8472V48.4334C79.1675 48.4849 78.7081 48.5114 78.2424 48.5114C77.6725 48.5114 77.1118 48.4717 76.5631 48.3951V49.4658C76.609 49.7187 76.5828 49.9715 76.4981 50.2019C76.3162 50.7879 75.773 51.2142 75.1285 51.2211L73.1809 51.7711C73.1705 51.9467 73.1653 52.1209 73.1653 52.2899C73.1653 56.1067 75.3409 59.3128 77.9363 59.3128C80.5317 59.3128 82.7073 56.1067 82.7073 52.2899C82.7073 52.1281 82.7073 51.9703 82.7033 51.8152ZM70.306 52.583L67.2897 53.4349C65.7757 53.8525 64.3687 54.4487 63.1178 55.1868C65.9126 55.9909 68.3819 57.2263 70.4559 58.8929C73.0895 60.954 74.4254 63.1295 74.4254 65.2669V75.3815H91.2975C94.4654 75.3815 97.0227 72.8242 97.0227 69.6563V59.8853C97.0227 58.893 96.1448 57.6334 94.5418 56.3739C92.9006 55.0762 90.954 54.122 88.7403 53.5113L85.5657 52.6194C85.4321 57.9471 82.0705 62.2254 77.9363 62.2516C73.7927 62.2254 70.4252 57.9276 70.306 52.583ZM77.9363 62.2516L77.9745 62.2517H77.8981L77.9363 62.2516ZM60.2513 25.3392C58.9636 21.033 54.9612 17.9008 50.2657 17.9008C45.9485 17.9008 42.2525 20.5349 40.6694 24.2632C42.8632 22.7041 44.8963 22.1596 46.792 22.5951C48.4332 22.9768 49.3874 23.9691 50.1889 24.847L50.1967 24.8553C50.8045 25.5011 51.376 26.1083 52.2881 26.5264C53.7128 27.1675 55.902 27.6092 60.2513 25.3392ZM39.8458 28.8731V38.9313C39.8458 44.6946 44.5405 49.3511 50.2657 49.3511C55.9908 49.3511 60.6855 44.6564 60.6855 38.9313V28.3681C58.4552 29.4168 56.4628 29.9233 54.6545 29.9233C53.395 29.9233 52.2118 29.6562 51.0668 29.16C49.7574 28.5417 48.8987 27.6808 48.1932 26.9736L48.0897 26.8699C47.3263 26.0684 46.8683 25.6104 46.1431 25.4577C44.5443 25.0943 42.3574 26.2877 39.8458 28.8731ZM52.0215 52.1747C51.4467 52.2508 50.8606 52.29 50.2657 52.29C49.5523 52.29 48.8521 52.2338 48.1693 52.1256V53.6923C48.2826 54.3975 47.8385 55.0942 47.1354 55.3051L44.4483 56.0571C44.4336 56.2974 44.4262 56.5419 44.4262 56.7937C44.4262 61.183 46.9453 64.8853 49.9605 64.8853C52.9758 64.8853 55.4949 61.183 55.4949 56.7937C55.4949 56.554 55.4872 56.3066 55.4718 56.0584L53.0514 55.3815C52.3404 55.1682 51.8943 54.4582 52.0215 53.745V52.1747Z" fill="url(#paint0_linear_4845_220)"/>
<defs>
<linearGradient id="paint0_linear_4845_220" x1="3.47917" y1="54.2479" x2="92.3067" y2="23.8234" gradientUnits="userSpaceOnUse">
<stop stop-color="#57BF22"/>
<stop offset="0.44" stop-color="#A248D1"/>
<stop offset="0.73" stop-color="#DB147B"/>
<stop offset="1" stop-color="#F2791D"/>
</linearGradient>
</defs>
</svg>
