<svg width="100" height="100" viewBox="0 0 100 100" fill="none" xmlns="http://www.w3.org/2000/svg">
<g id="Personalized Onboarding">
<path id="Vector" d="M94.75 49.8101C94.75 49.6852 94.73 49.5708 94.7 49.4564C94.52 23.8773 74.49 3.07282 49.85 3C25.11 3.07282 5 24.0645 5 49.8101C5 75.5556 25.11 96.5473 49.85 96.6201C74.48 96.5473 94.51 75.7428 94.7 50.1637C94.73 50.0493 94.75 49.9349 94.75 49.8101ZM91.92 48.3745H83.22C82.6 44.1304 79.22 40.8641 75.03 40.6041C72.6 26.6963 65.03 13.8183 55.01 6.22469C75.36 8.88766 91.25 26.6859 91.92 48.385V48.3745ZM30.29 72.5701C30.21 72.6118 30.16 72.6742 30.1 72.7262C29.41 73.0174 28.65 73.1735 27.87 73.1735C24.54 73.1735 21.82 70.3441 21.82 66.8385C21.82 63.9051 23.72 61.4606 26.29 60.7324H26.35C26.45 60.7116 26.55 60.6804 26.64 60.6388C27.04 60.5556 27.45 60.5036 27.87 60.5036C31.24 60.5036 33.96 63.333 33.96 66.8385C33.96 69.3142 32.59 71.4363 30.61 72.4869C30.51 72.5077 30.4 72.5181 30.3 72.5701H30.29ZM36.7 66.8073C36.7 61.7206 32.75 57.6117 27.86 57.6117C27.64 57.6117 27.42 57.6325 27.2 57.6429C26.86 55.4793 26.66 53.3468 26.59 51.2352H48.48V92.5944C42.22 88.5168 36.73 82.1818 32.77 74.4633C35.14 72.8198 36.71 70.0112 36.71 66.8073H36.7ZM65.77 48.3745H51.24V31.1068C55.47 30.4203 58.71 26.6339 58.71 22.0361C58.71 17.4383 55.48 13.6519 51.24 12.9653V7.02566C61.73 13.8807 69.76 26.7691 72.27 40.8849C68.89 41.8003 66.31 44.7338 65.78 48.385L65.77 48.3745ZM49.86 15.7427C53.23 15.7427 55.95 18.5305 55.95 22.0361C55.95 25.5416 53.23 28.371 49.87 28.371C46.5 28.371 43.79 25.5104 43.79 22.0361C43.79 18.5617 46.54 15.7427 49.88 15.7427H49.86ZM48.48 12.9549C44.25 13.6415 41.02 17.4279 41.02 22.0257C41.02 26.6235 44.27 30.4099 48.48 31.0964V48.3641H26.58C27.08 31.9078 36.02 15.0458 48.48 6.94245V12.9445V12.9549ZM51.23 51.2456H65.78C66.34 54.8655 68.93 57.7678 72.28 58.6728C69.75 72.8406 61.69 85.781 51.23 92.584V51.2456ZM74.49 56.1034C74.49 56.1034 74.43 56.1034 74.4 56.1034C74.31 56.0722 74.22 56.0514 74.13 56.0306C73.98 56.0098 73.83 56.0202 73.68 56.041C70.78 55.6353 68.54 53.1076 68.42 50.0389C68.43 49.9661 68.44 49.8933 68.44 49.8101C68.44 49.7268 68.43 49.6436 68.42 49.5604C68.53 46.1901 71.23 43.4855 74.5 43.4855C77.77 43.4855 80.59 46.2733 80.59 49.7789C80.59 53.2844 77.87 56.1138 74.5 56.1138L74.49 56.1034ZM44.72 6.21429C32.75 15.3162 24.33 32.0222 23.89 48.3745H7.79C8.46 26.6755 24.39 8.87726 44.72 6.21429ZM7.79 51.2456H23.91C23.97 53.5653 24.19 55.9162 24.57 58.2775C21.32 59.6298 19.02 62.9377 19.02 66.8073C19.02 71.894 23.01 76.0029 27.86 76.0029C28.69 76.0029 29.49 75.8781 30.26 75.6492C33.97 82.9412 38.97 89.0577 44.71 93.3954C24.35 90.7429 8.46 72.9446 7.79 51.2456ZM55.05 93.3954C65.07 85.8018 72.62 72.8926 75.06 58.9432C79.21 58.6728 82.56 55.4377 83.21 51.2456H91.92C91.25 72.9238 75.38 90.7116 55.05 93.3954Z" fill="url(#paint0_linear_4845_222)"/>
</g>
<defs>
<linearGradient id="paint0_linear_4845_222" x1="9.31" y1="39.5847" x2="93.7553" y2="59.2594" gradientUnits="userSpaceOnUse">
<stop stop-color="#7FBD39"/>
<stop offset="0.44" stop-color="#8D49CB"/>
<stop offset="0.73" stop-color="#BB1B78"/>
<stop offset="1" stop-color="#D6782B"/>
</linearGradient>
</defs>
</svg>
