<svg width="100" height="100" viewBox="0 0 100 100" fill="none" xmlns="http://www.w3.org/2000/svg">
<g id="Allocated Resources" clip-path="url(#clip0_4845_221)">
<path id="Union" fill-rule="evenodd" clip-rule="evenodd" d="M51.3656 15.8029C55.0771 15.1242 57.8893 11.8745 57.8893 7.9666C57.8893 3.566 54.3233 0 49.9227 0C45.5221 0 41.9561 3.566 41.9561 7.9666C41.9561 11.8754 44.7696 15.1258 48.4824 15.8034V21.2039C41.6399 21.5434 35.4196 24.2853 30.6494 28.6015L27.6833 25.6354C29.0834 23.3154 28.7837 20.2467 26.7842 18.2472C25.6461 17.1091 24.1286 16.4642 22.4974 16.4642C20.8661 16.4642 19.3487 17.1091 18.2106 18.2472C17.0725 19.3853 16.4276 20.9027 16.4276 22.534C16.4276 24.1652 17.0725 25.6827 18.2106 26.8207C19.3487 27.9588 20.8661 28.6038 22.4974 28.6038V28.5658C23.6282 28.5658 24.7043 28.2559 25.6373 27.6866L28.6009 30.6502C24.2772 35.4292 21.5337 41.6635 21.2027 48.5206H15.8032C15.125 44.8085 11.875 41.9956 7.9666 41.9956C3.566 41.9956 0 45.5616 0 49.9622C0 54.3628 3.566 57.9288 7.9666 57.9288C11.875 57.9288 15.125 55.116 15.8032 51.4038H21.2065C21.5547 58.2403 24.3011 64.4538 28.6191 69.2177L25.6609 72.176C24.7225 71.5975 23.6377 71.2823 22.4974 71.2823C20.8661 71.2823 19.3487 71.9272 18.2106 73.0653C17.0725 74.2034 16.4276 75.7208 16.4276 77.3521C16.4276 78.9833 17.0725 80.5008 18.2106 81.6389C19.3487 82.777 20.8661 83.4219 22.4974 83.4219V83.3839C24.1286 83.3839 25.6461 82.739 26.7842 81.6009C28.7769 79.6083 29.0813 76.5536 27.6975 74.2364L30.6695 71.2644C35.4371 75.5701 41.6495 78.3047 48.4824 78.6438V84.1965C44.7696 84.8742 41.9561 88.1245 41.9561 92.0333C41.9561 96.4339 45.5221 99.9999 49.9227 99.9999C54.3233 99.9999 57.8893 96.4339 57.8893 92.0333C57.8893 88.1254 55.0771 84.8757 51.3656 84.197V78.6439C58.1981 78.3051 64.4103 75.5711 69.1779 71.266L72.1652 74.2533C70.7668 76.573 71.0671 79.6402 73.0658 81.639C74.2371 82.8102 75.7846 83.4171 77.3337 83.422L77.3147 83.422H77.3526L77.3337 83.422C78.8827 83.4171 80.4302 82.8102 81.6015 81.639C83.9535 79.287 83.9535 75.4554 81.6015 73.1034C79.602 71.1039 76.5333 70.8042 74.2132 72.2042L71.2285 69.2195C75.5474 64.4554 78.2944 58.2412 78.6426 51.4038H84.0823C84.7605 55.116 88.0105 57.9288 91.9189 57.9288C96.3195 57.9288 99.8855 54.3628 99.8855 49.9622C99.8855 45.5616 96.3195 41.9956 91.9189 41.9956C88.0105 41.9956 84.7604 44.8085 84.0823 48.5207H78.6464C78.3163 41.682 75.5867 35.4627 71.2831 30.6887L74.2356 27.7362C75.184 28.3071 76.2585 28.6004 77.3337 28.6039L77.3147 28.6039H77.3526L77.3337 28.6039C78.8827 28.5989 80.4302 27.9921 81.6015 26.8209C83.9535 24.4688 83.9535 20.6373 81.6015 18.2852C79.2494 15.9332 75.4179 15.9332 73.0658 18.2852C71.0602 20.2909 70.7648 23.3724 72.1798 25.695L69.2383 28.6364C64.4628 24.2998 58.227 21.544 51.3656 21.2039V15.8029ZM50.2149 13.0797C52.8862 12.9283 55.0061 10.7137 55.0061 8.00454C55.0061 5.19726 52.73 2.92109 49.9227 2.92109C47.1154 2.92109 44.8392 5.19726 44.8392 8.00454C44.8392 10.7144 46.9602 12.9294 49.6325 13.0798C49.7267 13.0606 49.8241 13.0504 49.924 13.0504C50.0237 13.0504 50.121 13.0605 50.2149 13.0797ZM49.924 24.0899C49.8095 24.0899 49.6981 24.0773 49.5914 24.0535C35.4802 24.2326 24.0521 35.7711 24.0521 49.9239C24.0521 64.1879 35.6606 75.7963 49.9246 75.7963C64.1886 75.7963 75.7971 64.1879 75.7971 49.9239C75.7971 42.8806 72.9668 36.4849 68.384 31.8144C68.3242 31.7727 68.2657 31.7268 68.2086 31.6768C68.138 31.6062 68.0756 31.531 68.0216 31.4522C63.4221 26.9451 57.1524 24.1363 50.24 24.0533C50.1383 24.0772 50.0326 24.0899 49.924 24.0899ZM13.0397 49.6731C13.0207 49.7665 13.0107 49.8632 13.0107 49.9622C13.0107 50.0671 13.0219 50.1693 13.0431 50.2677C12.904 52.9507 10.6841 55.0836 7.9666 55.0836C5.15932 55.0836 2.88315 52.8074 2.88315 50.0002C2.88315 47.1929 5.15932 44.9167 7.9666 44.9167C10.664 44.9167 12.8711 47.0182 13.0397 49.6731ZM86.8426 50.2725C86.8645 50.1726 86.876 50.0688 86.876 49.9623C86.876 49.8615 86.8657 49.7633 86.8461 49.6684C87.017 47.0157 89.223 44.9167 91.9189 44.9167C94.7261 44.9167 97.0023 47.1929 97.0023 50.0002C97.0023 52.8074 94.7261 55.0836 91.9189 55.0836C89.2029 55.0836 86.9841 52.9532 86.8426 50.2725ZM24.9088 24.584C25.9465 23.3588 25.8888 21.4849 24.7356 20.2957C24.1286 19.6887 23.332 19.3853 22.4974 19.3853C21.6628 19.3853 20.8661 19.7267 20.2591 20.2957C19.6522 20.9027 19.3487 21.6994 19.3487 22.534C19.3487 23.3686 19.6901 24.1652 20.2591 24.7722C21.3872 25.9002 23.3529 25.9463 24.5828 24.9102C24.6276 24.8487 24.6778 24.7898 24.7334 24.7342C24.7889 24.6787 24.8476 24.6287 24.9088 24.584ZM24.7149 75.1331L24.7334 75.152L24.7479 75.1645C25.9495 76.4173 25.9454 78.4184 24.7356 79.6283C23.5217 80.8043 21.4352 80.8043 20.2591 79.6283C19.6901 79.0213 19.3487 78.2246 19.3487 77.39C19.3487 76.5554 19.6522 75.7588 20.2591 75.1518C20.8661 74.5827 21.6628 74.2413 22.4974 74.2413C23.3126 74.2413 24.0917 74.5309 24.6931 75.1101C24.7003 75.1178 24.7075 75.1255 24.7149 75.1331ZM75.294 24.9383C76.5191 25.9835 78.3989 25.9282 79.5909 24.7723C80.8048 23.5584 80.8048 21.5477 79.5909 20.2959C78.9839 19.6889 78.1493 19.3854 77.3526 19.3854C76.556 19.3854 75.7214 19.6889 75.1144 20.2959C73.9465 21.4638 73.9022 23.3691 74.9815 24.6267C75.0406 24.6702 75.0973 24.7188 75.1509 24.7724C75.2035 24.825 75.2512 24.8804 75.294 24.9383ZM75.1144 75.1519C75.7214 74.5449 76.556 74.2414 77.3526 74.2414C78.1493 74.2414 78.9839 74.5449 79.5909 75.1519C80.8048 76.4038 80.8048 78.4144 79.5909 79.6284C78.339 80.8424 76.3283 80.8424 75.1144 79.6284C73.9004 78.3765 73.9004 76.3659 75.1144 75.1519ZM44.8392 92.0713C44.8392 89.264 47.1154 86.9878 49.9227 86.9878C52.73 86.9878 55.0061 89.264 55.0061 92.0713C55.0061 94.8785 52.73 97.1547 49.9227 97.1547C47.1154 97.1547 44.8392 94.8785 44.8392 92.0713ZM44.5707 49.2835C42.4741 47.6738 41.1211 45.1424 41.1211 42.2988C41.1211 37.4429 45.0665 33.4976 49.9223 33.4976C54.7781 33.4976 58.7235 37.4429 58.7235 42.2988C58.7235 45.1415 57.3713 47.6722 55.2759 49.2819C60.3275 51.3843 63.8857 56.3712 63.8857 62.1775C63.8857 62.9741 63.2408 63.619 62.4441 63.619C61.6475 63.619 61.0026 62.9741 61.0026 62.1775C61.0026 56.0697 56.0329 51.1001 49.9252 51.1001C43.8175 51.1001 38.8478 56.0697 38.8478 62.1775C38.8478 62.9741 38.2029 63.619 37.4062 63.619C36.6096 63.619 35.9647 62.9741 35.9647 62.1775C35.9647 56.3726 39.5212 51.3868 44.5707 49.2835ZM50.4862 48.2281C53.4813 47.9429 55.8024 45.4089 55.8024 42.3367C55.8024 39.0742 53.1469 36.4186 49.9223 36.4186C46.6598 36.4186 44.0042 39.0742 44.0042 42.3367C44.0042 45.4095 46.36 47.9439 49.3598 48.2282C49.5474 48.2207 49.7359 48.2169 49.9252 48.2169C50.1131 48.2169 50.3001 48.2207 50.4862 48.2281Z" fill="url(#paint0_linear_4845_221)"/>
</g>
<defs>
<linearGradient id="paint0_linear_4845_221" x1="3.47519" y1="55.4639" x2="97.1213" y2="32.7926" gradientUnits="userSpaceOnUse">
<stop stop-color="#57BF22"/>
<stop offset="0.44" stop-color="#A248D1"/>
<stop offset="0.73" stop-color="#DB147B"/>
<stop offset="1" stop-color="#F2791D"/>
</linearGradient>
<clipPath id="clip0_4845_221">
<rect width="100" height="100" fill="white"/>
</clipPath>
</defs>
</svg>
