<svg width="100" height="100" viewBox="0 0 100 100" fill="none" xmlns="http://www.w3.org/2000/svg">
<g clip-path="url(#clip0_4845_223)">
<path fill-rule="evenodd" clip-rule="evenodd" d="M49.9814 100C48.0476 100 46.2254 99.2562 44.8494 97.8803L2.11975 55.1134C0.743771 53.7374 0 51.9152 0 49.9814C0 48.0476 0.743771 46.2254 2.11975 44.8494L23.2874 23.6818C23.3385 23.6058 23.3977 23.5335 23.4652 23.4661C23.5326 23.3986 23.6049 23.3394 23.6809 23.2883L44.8494 2.11975C46.2254 0.743771 48.0476 0 49.9814 0C51.9152 0 53.7375 0.743771 55.1134 2.11975L97.8431 44.8494C99.219 46.2254 99.9628 48.0476 99.9628 49.9814C99.9628 51.9152 99.219 53.7374 97.8431 55.1134L76.6772 76.2793C76.6259 76.3558 76.5663 76.4286 76.4985 76.4964C76.4353 76.5596 76.3655 76.6162 76.2908 76.6657L55.1134 97.8431C53.7375 99.219 51.9152 99.9628 49.9814 99.9628V100ZM26.4964 24.4891L46.8576 4.12793C47.6757 3.27259 48.7914 2.82633 49.9814 2.82633C51.1714 2.82633 52.2871 3.30978 53.1052 4.12793L73.4845 24.5072L68.3459 29.6458C68.0216 27.0998 66.8734 24.7012 65.0058 22.8335C62.7745 20.6022 59.7994 19.375 56.6755 19.375C53.5517 19.375 50.6138 20.6022 48.3825 22.8335C46.1512 25.0648 44.924 28.0027 44.924 31.1638C44.924 34.3248 46.1512 37.2627 48.3825 39.494C50.2335 41.345 52.6219 42.505 55.1445 42.8467L50.0003 47.9909L41.987 39.9776C41.4292 39.4197 40.5367 39.4197 39.9788 39.9776C39.7563 40.2001 39.6225 40.476 39.5775 40.7626C39.5483 40.9158 39.5437 41.0773 39.5672 41.2421C40.0135 44.0312 39.0838 46.8947 37.0756 48.9029C35.3649 50.5764 33.1336 51.5061 30.7535 51.5061C28.3735 51.5061 26.105 50.5764 24.4315 48.9029C22.758 47.1922 21.8283 44.9609 21.8283 42.5809C21.8283 40.2008 22.758 37.9323 24.4315 36.2588C26.4396 34.2506 29.3032 33.3209 32.0923 33.73C32.3741 33.7723 32.656 33.7238 32.9034 33.6047C33.0585 33.5359 33.201 33.4401 33.3201 33.321C33.8779 32.7632 33.8779 31.8707 33.3201 31.3128L26.4964 24.4891ZM28.9392 30.9483L24.4882 26.4973L4.12793 46.8576C2.41726 48.5682 2.41726 51.3946 4.12793 53.1052L24.5063 73.4836L31.0878 66.902C31.1156 66.8743 31.1442 66.8479 31.1735 66.8229C31.4522 66.5623 31.8318 66.4165 32.2423 66.4556C33.0232 66.53 33.5811 67.1994 33.5439 67.9803C33.3208 70.6207 34.2505 73.1867 36.1099 75.0461C37.7834 76.7196 40.0519 77.6493 42.4319 77.6493C44.812 77.6493 47.0433 76.7196 48.754 75.0461C50.4275 73.3727 51.3572 71.1041 51.3572 68.7241C51.3572 66.344 50.4275 64.1127 48.754 62.402C46.9769 60.6249 44.5204 59.6631 42.0339 59.8086C41.8651 59.8754 41.6834 59.9109 41.5016 59.9109C41.1297 59.9109 40.795 59.7622 40.4975 59.5018C39.9397 58.944 39.9397 58.0515 40.4975 57.4937L47.9921 49.999L42.3542 44.3611C41.981 46.8105 40.8396 49.118 39.0466 50.9111C36.8153 53.1424 33.8774 54.3696 30.7535 54.3696V54.2953C27.6297 54.2953 24.6546 53.068 22.4233 50.8367C20.192 48.6054 18.9648 45.6675 18.9648 42.5437C18.9648 39.4198 20.192 36.4447 22.4233 34.2506C24.208 32.4659 26.5025 31.3268 28.9392 30.9483ZM34.1017 77.0915C32.4457 75.4355 31.3484 73.3563 30.901 71.1052L26.5145 75.4918L46.8576 95.8349C48.5311 97.5084 51.469 97.5084 53.1052 95.8349L73.467 75.4731L66.9601 68.9662C66.6376 68.7454 66.4133 68.3937 66.3564 67.992C66.2828 67.5556 66.4157 67.0924 66.7551 66.753C67.1403 66.3678 67.6852 66.2486 68.1692 66.3954C70.5809 66.4461 72.9313 65.5198 74.6368 63.7788C76.3103 62.1053 77.24 59.8368 77.24 57.4567C77.24 55.0766 76.3103 52.8453 74.6368 51.1347C71.1411 47.6389 65.4884 47.6389 62.0299 51.1347C60.3151 52.8494 59.3553 55.2163 59.4143 57.6417C59.5609 58.1256 59.4416 58.6702 59.0565 59.0553C58.7962 59.3156 58.4243 59.4644 58.0525 59.4644C57.6806 59.4644 57.3459 59.3156 57.0484 59.0553L50.0003 52.0072L44.8141 57.1934C47.0648 57.6409 49.1436 58.7381 50.7994 60.3938C53.0307 62.6252 54.2579 65.5631 54.2579 68.6869C54.2579 71.8107 53.0307 74.7858 50.7994 76.9799C48.5681 79.2113 45.6302 80.4385 42.5063 80.4385L42.3948 80.55C39.2709 80.55 36.2958 79.3228 34.1017 77.0915ZM56.8631 54.8537C57.3417 52.6944 58.421 50.69 60.0217 49.0893C64.5959 44.5151 72.0708 44.5151 76.645 49.0893C78.8763 51.3206 80.1035 54.2585 80.1035 57.3823C80.1035 60.5062 78.8763 63.4813 76.645 65.6754C75.0539 67.2665 73.0325 68.3687 70.8646 68.8543L75.4752 73.4649L95.8349 53.1052C97.5456 51.3946 97.5456 48.5682 95.8349 46.8576L75.4927 26.5153L67.9061 34.102C67.6457 34.3623 67.2739 34.511 66.902 34.511C66.5301 34.511 66.1954 34.3623 65.8979 34.102C65.7719 33.9759 65.6743 33.8329 65.6052 33.6804C65.4743 33.415 65.4277 33.1075 65.4892 32.8001C66.0471 29.8994 65.1173 26.9243 63.0348 24.8417C61.3613 23.1682 59.0928 22.2385 56.7127 22.2385C54.3327 22.2385 52.1013 23.1682 50.3907 24.8417C48.7172 26.5152 47.7875 28.7837 47.7875 31.1638C47.7875 33.5438 48.7172 35.7752 50.3907 37.4858C52.4732 39.5684 55.4483 40.4981 58.349 39.9403C58.5878 39.8925 58.8266 39.9137 59.0458 39.9892C59.2662 40.0544 59.4744 40.1746 59.6496 40.3497C60.2074 40.9076 60.2074 41.8001 59.6496 42.3579L52.0085 49.999L56.8631 54.8537Z" fill="url(#paint0_linear_4845_223)"/>
</g>
<defs>
<linearGradient id="paint0_linear_4845_223" x1="4.80044" y1="39.0778" x2="98.4341" y2="61.8255" gradientUnits="userSpaceOnUse">
<stop stop-color="#7FBD39"/>
<stop offset="0.44" stop-color="#8D49CB"/>
<stop offset="0.73" stop-color="#BB1B78"/>
<stop offset="1" stop-color="#D6782B"/>
</linearGradient>
<clipPath id="clip0_4845_223">
<rect width="100" height="100" fill="white"/>
</clipPath>
</defs>
</svg>
